<svg width="24" height="30" viewBox="0 0 24 30" fill="none" xmlns="http://www.w3.org/2000/svg">
<g clip-path="url(#clip0_307_2095)">
<path d="M23.2482 10.2353C21.2819 11.4706 20.0675 13.5882 20.0675 15.9412C20.0675 18.5882 21.6289 21 24 22C23.5373 23.5294 22.8434 24.9412 21.9759 26.2353C20.7036 28.0588 19.3735 29.9412 17.4072 29.9412C15.441 29.9412 14.8627 28.7647 12.5494 28.7647C10.294 28.7647 9.48434 30 7.63373 30C5.78313 30 4.51084 28.2941 3.06506 26.1765C1.15663 23.2353 0.0578313 19.8235 0 16.2353C0 10.4118 3.7012 7.29412 7.40241 7.29412C9.36867 7.29412 10.988 8.58824 12.2024 8.58824C13.359 8.58824 15.2096 7.23529 17.4072 7.23529C19.7205 7.17647 21.9181 8.29412 23.2482 10.2353ZM16.3663 4.76471C17.3494 3.58824 17.8699 2.11765 17.9277 0.588235C17.9277 0.411765 17.9277 0.176471 17.8699 0C16.1928 0.176471 14.6313 1 13.5325 2.29412C12.5494 3.41176 11.9711 4.82353 11.9133 6.35294C11.9133 6.52941 11.9133 6.70588 11.9711 6.88235C12.0867 6.88235 12.2602 6.94118 12.3759 6.94118C13.9373 6.82353 15.3831 6 16.3663 4.76471Z" fill="black"/>
</g>
<defs>
<clipPath id="clip0_307_2095">
<rect width="24" height="30" fill="white"/>
</clipPath>
</defs>
</svg>
