<svg width="26" height="26" viewBox="0 0 26 26" fill="none" xmlns="http://www.w3.org/2000/svg">
<path d="M11.7 11.0496C11.7 10.8772 11.7685 10.7119 11.8904 10.59C12.0123 10.4681 12.1776 10.3996 12.35 10.3996H16.9C17.0724 10.3996 17.2377 10.4681 17.3596 10.59C17.4815 10.7119 17.55 10.8772 17.55 11.0496C17.55 11.222 17.4815 11.3873 17.3596 11.5092C17.2377 11.6311 17.0724 11.6996 16.9 11.6996H12.35C12.1776 11.6996 12.0123 11.6311 11.8904 11.5092C11.7685 11.3873 11.7 11.222 11.7 11.0496ZM11.7 14.9496C11.7 14.7772 11.7685 14.6119 11.8904 14.49C12.0123 14.3681 12.1776 14.2996 12.35 14.2996H16.9C17.0724 14.2996 17.2377 14.3681 17.3596 14.49C17.4815 14.6119 17.55 14.7772 17.55 14.9496C17.55 15.122 17.4815 15.2873 17.3596 15.4092C17.2377 15.5311 17.0724 15.5996 16.9 15.5996H12.35C12.1776 15.5996 12.0123 15.5311 11.8904 15.4092C11.7685 15.2873 11.7 15.122 11.7 14.9496ZM11.7 18.8496C11.7 18.6772 11.7685 18.5119 11.8904 18.39C12.0123 18.2681 12.1776 18.1996 12.35 18.1996H16.9C17.0724 18.1996 17.2377 18.2681 17.3596 18.39C17.4815 18.5119 17.55 18.6772 17.55 18.8496C17.55 19.022 17.4815 19.1873 17.3596 19.3092C17.2377 19.4311 17.0724 19.4996 16.9 19.4996H12.35C12.1776 19.4996 12.0123 19.4311 11.8904 19.3092C11.7685 19.1873 11.7 19.022 11.7 18.8496ZM10.4 11.0496C10.4 11.3082 10.2973 11.5562 10.1144 11.739C9.93159 11.9219 9.6836 12.0246 9.42501 12.0246C9.16643 12.0246 8.91843 11.9219 8.73558 11.739C8.55273 11.5562 8.45001 11.3082 8.45001 11.0496C8.45001 10.791 8.55273 10.543 8.73558 10.3602C8.91843 10.1773 9.16643 10.0746 9.42501 10.0746C9.6836 10.0746 9.93159 10.1773 10.1144 10.3602C10.2973 10.543 10.4 10.791 10.4 11.0496ZM10.4 14.9496C10.4 15.2082 10.2973 15.4562 10.1144 15.639C9.93159 15.8219 9.6836 15.9246 9.42501 15.9246C9.16643 15.9246 8.91843 15.8219 8.73558 15.639C8.55273 15.4562 8.45001 15.2082 8.45001 14.9496C8.45001 14.691 8.55273 14.443 8.73558 14.2602C8.91843 14.0773 9.16643 13.9746 9.42501 13.9746C9.6836 13.9746 9.93159 14.0773 10.1144 14.2602C10.2973 14.443 10.4 14.691 10.4 14.9496ZM9.42501 19.8246C9.6836 19.8246 9.93159 19.7219 10.1144 19.539C10.2973 19.3562 10.4 19.1082 10.4 18.8496C10.4 18.591 10.2973 18.343 10.1144 18.1602C9.93159 17.9773 9.6836 17.8746 9.42501 17.8746C9.16643 17.8746 8.91843 17.9773 8.73558 18.1602C8.55273 18.343 8.45001 18.591 8.45001 18.8496C8.45001 19.1082 8.55273 19.3562 8.73558 19.539C8.91843 19.7219 9.16643 19.8246 9.42501 19.8246ZM9.21051 3.89961C9.34499 3.51926 9.59412 3.18998 9.92357 2.95715C10.253 2.72432 10.6466 2.5994 11.05 2.59961H14.95C15.3534 2.5994 15.747 2.72432 16.0764 2.95715C16.4059 3.18998 16.655 3.51926 16.7895 3.89961H18.85C19.3672 3.89961 19.8632 4.10506 20.2289 4.47075C20.5946 4.83645 20.8 5.33244 20.8 5.84961V21.4496C20.8 21.9668 20.5946 22.4628 20.2289 22.8285C19.8632 23.1942 19.3672 23.3996 18.85 23.3996H7.15001C6.63284 23.3996 6.13685 23.1942 5.77115 22.8285C5.40546 22.4628 5.20001 21.9668 5.20001 21.4496V5.84961C5.20001 5.33244 5.40546 4.83645 5.77115 4.47075C6.13685 4.10506 6.63284 3.89961 7.15001 3.89961H9.21051ZM11.05 3.89961C10.8776 3.89961 10.7123 3.96809 10.5904 4.08999C10.4685 4.21189 10.4 4.37722 10.4 4.54961C10.4 4.722 10.4685 4.88733 10.5904 5.00923C10.7123 5.13113 10.8776 5.19961 11.05 5.19961H14.95C15.1224 5.19961 15.2877 5.13113 15.4096 5.00923C15.5315 4.88733 15.6 4.722 15.6 4.54961C15.6 4.37722 15.5315 4.21189 15.4096 4.08999C15.2877 3.96809 15.1224 3.89961 14.95 3.89961H11.05ZM9.21051 5.19961H7.15001C6.97762 5.19961 6.81229 5.26809 6.69039 5.38999C6.56849 5.51189 6.50001 5.67722 6.50001 5.84961V21.4496C6.50001 21.622 6.56849 21.7873 6.69039 21.9092C6.81229 22.0311 6.97762 22.0996 7.15001 22.0996H18.85C19.0224 22.0996 19.1877 22.0311 19.3096 21.9092C19.4315 21.7873 19.5 21.622 19.5 21.4496V5.84961C19.5 5.67722 19.4315 5.51189 19.3096 5.38999C19.1877 5.26809 19.0224 5.19961 18.85 5.19961H16.7895C16.655 5.57996 16.4059 5.90924 16.0764 6.14207C15.747 6.3749 15.3534 6.49982 14.95 6.49961H11.05C10.6466 6.49982 10.253 6.3749 9.92357 6.14207C9.59412 5.90924 9.34499 5.57996 9.21051 5.19961Z" fill="black" fill-opacity="0.7"/>
</svg>
