<svg width="24" height="24" viewBox="0 0 24 24" fill="none" xmlns="http://www.w3.org/2000/svg">
<path d="M3.5 6.25V8H8.129C8.32785 7.99983 8.51848 7.92069 8.659 7.78L10.189 6.25L8.659 4.72C8.51848 4.57931 8.32785 4.50017 8.129 4.5H5.25C4.78587 4.5 4.34075 4.68437 4.01256 5.01256C3.68437 5.34075 3.5 5.78587 3.5 6.25ZM2 6.25C2 5.38805 2.34241 4.5614 2.9519 3.9519C3.5614 3.34241 4.38805 3 5.25 3H8.129C8.72539 3.00026 9.29728 3.23729 9.719 3.659L11.562 5.5H18.751C19.6128 5.50027 20.4392 5.84279 21.0485 6.45226C21.6577 7.06172 22 7.88822 22 8.75V17.75C22 18.1768 21.9159 18.5994 21.7526 18.9937C21.5893 19.388 21.3499 19.7463 21.0481 20.0481C20.7463 20.3499 20.388 20.5893 19.9937 20.7526C19.5994 20.9159 19.1768 21 18.75 21H5.25C4.38805 21 3.5614 20.6576 2.9519 20.0481C2.34241 19.4386 2 18.612 2 17.75V6.25ZM3.5 9.5V17.75C3.5 18.716 4.284 19.5 5.25 19.5H18.75C19.2141 19.5 19.6592 19.3156 19.9874 18.9874C20.3156 18.6592 20.5 18.2141 20.5 17.75V8.75C20.5 8.28587 20.3156 7.84075 19.9874 7.51256C19.6592 7.18437 19.2141 7 18.75 7H11.56L9.72 8.841C9.51107 9.04993 9.26303 9.21566 8.99004 9.32874C8.71706 9.44181 8.42447 9.5 8.129 9.5H3.5Z" fill="black" fill-opacity="0.7"/>
</svg>
