<svg width="30" height="30" viewBox="0 0 30 30" fill="none" xmlns="http://www.w3.org/2000/svg">
<path d="M30 15.0006C30 6.7163 23.2843 0.000581741 15 0.000581741C6.71572 0.000581741 0 6.7163 0 15.0006C0 22.4875 5.48528 28.6931 12.6562 29.8184V19.3365H8.84766V15.0006H12.6562V11.6959C12.6562 7.93652 14.8956 5.85996 18.322 5.85996C19.9631 5.85996 21.6797 6.15293 21.6797 6.15293V9.84433H19.7882C17.9249 9.84433 17.3438 11.0006 17.3438 12.1868V15.0006H21.5039L20.8389 19.3365H17.3438V29.8184C24.5147 28.6931 30 22.4875 30 15.0006Z" fill="#1877F2"/>
<path d="M20.8389 19.3359L21.5039 15H17.3438V12.1862C17.3438 11 17.9249 9.84375 19.7882 9.84375H21.6797V6.15234C21.6797 6.15234 19.9631 5.85938 18.322 5.85938C14.8956 5.85938 12.6563 7.93594 12.6563 11.6953V15H8.84766V19.3359H12.6563V29.8178C13.4199 29.9376 14.2027 30 15 30C15.7973 30 16.5801 29.9376 17.3438 29.8178V19.3359H20.8389Z" fill="white"/>
</svg>
