<svg width="4" height="14" viewBox="0 0 4 14" fill="none" xmlns="http://www.w3.org/2000/svg">
<path d="M3.4004 2.19142C3.40046 2.37538 3.36428 2.55755 3.29394 2.72753C3.2236 2.89751 3.12046 3.05198 2.99042 3.1821C2.86038 3.31222 2.70599 3.41546 2.53605 3.48591C2.36611 3.55636 2.18396 3.59266 2 3.59272C1.81604 3.59277 1.63387 3.5566 1.46389 3.48625C1.2939 3.41591 1.13944 3.31277 1.00932 3.18273C0.879196 3.0527 0.775961 2.8983 0.705508 2.72836C0.635054 2.55843 0.598761 2.37628 0.598702 2.19232C0.598582 1.82079 0.746057 1.46443 1.00868 1.20163C1.27131 0.938839 1.62757 0.791135 1.9991 0.791016C2.37063 0.790896 2.72699 0.938371 2.98978 1.201C3.25258 1.46362 3.40028 1.81989 3.4004 2.19142Z" fill="#0A0A0A"/>
<path d="M2 8.40041C2.77342 8.40041 3.4004 7.77343 3.4004 7.00001C3.4004 6.22659 2.77342 5.59961 2 5.59961C1.22658 5.59961 0.599602 6.22659 0.599602 7.00001C0.599602 7.77343 1.22658 8.40041 2 8.40041Z" fill="#0A0A0A"/>
<path d="M2 13.209C2.77342 13.209 3.4004 12.582 3.4004 11.8086C3.4004 11.0352 2.77342 10.4082 2 10.4082C1.22658 10.4082 0.599602 11.0352 0.599602 11.8086C0.599602 12.582 1.22658 13.209 2 13.209Z" fill="#0A0A0A"/>
</svg>
