<svg width="22" height="22" viewBox="0 0 22 22" fill="none" xmlns="http://www.w3.org/2000/svg">
<path fill-rule="evenodd" clip-rule="evenodd" d="M11.6481 14.3983C11.4762 14.5702 11.2431 14.6667 11 14.6667C10.7569 14.6667 10.5238 14.5702 10.3519 14.3983L5.16632 9.21273C5.07877 9.12817 5.00894 9.02702 4.9609 8.91519C4.91285 8.80335 4.88757 8.68307 4.88651 8.56135C4.88545 8.43964 4.90865 8.31893 4.95474 8.20628C5.00083 8.09362 5.06889 7.99127 5.15496 7.9052C5.24103 7.81914 5.34338 7.75107 5.45603 7.70498C5.56869 7.65889 5.68939 7.6357 5.81111 7.63675C5.93282 7.63781 6.05311 7.6631 6.16494 7.71114C6.27678 7.75918 6.37793 7.82902 6.46249 7.91657L11 12.4541L15.5375 7.91657C15.7104 7.74959 15.9419 7.65719 16.1823 7.65928C16.4226 7.66137 16.6525 7.75777 16.8225 7.92773C16.9924 8.09769 17.0889 8.3276 17.0909 8.56795C17.093 8.8083 17.0006 9.03985 16.8337 9.21273L11.6481 14.3983Z" fill="black" fill-opacity="0.6"/>
</svg>
