<svg width="93" height="28" viewBox="0 0 93 28" fill="none" xmlns="http://www.w3.org/2000/svg">
<path d="M44.1228 20V10.192H40.2828V8.8H49.5468V10.192H45.7068V20H44.1228ZM53.9664 20.096C53.0597 20.096 52.2597 19.9093 51.5664 19.536C50.8837 19.1627 50.3504 18.6507 49.9664 18C49.593 17.3493 49.4064 16.6027 49.4064 15.76C49.4064 14.9173 49.5877 14.1707 49.9504 13.52C50.3237 12.8693 50.8304 12.3627 51.4704 12C52.121 11.6267 52.8517 11.44 53.6624 11.44C54.4837 11.44 55.209 11.6213 55.8384 11.984C56.4677 12.3467 56.9584 12.8587 57.3104 13.52C57.673 14.1707 57.8544 14.9333 57.8544 15.808C57.8544 15.872 57.849 15.9467 57.8384 16.032C57.8384 16.1173 57.833 16.1973 57.8224 16.272H50.6064V15.168H57.0224L56.3984 15.552C56.409 15.008 56.297 14.5227 56.0624 14.096C55.8277 13.6693 55.5024 13.3387 55.0864 13.104C54.681 12.8587 54.2064 12.736 53.6624 12.736C53.129 12.736 52.6544 12.8587 52.2384 13.104C51.8224 13.3387 51.497 13.6747 51.2624 14.112C51.0277 14.5387 50.9104 15.0293 50.9104 15.584V15.84C50.9104 16.4053 51.0384 16.912 51.2944 17.36C51.561 17.7973 51.929 18.1387 52.3984 18.384C52.8677 18.6293 53.4064 18.752 54.0144 18.752C54.5157 18.752 54.969 18.6667 55.3744 18.496C55.7904 18.3253 56.153 18.0693 56.4624 17.728L57.3104 18.72C56.9264 19.168 56.4464 19.5093 55.8704 19.744C55.305 19.9787 54.6704 20.096 53.9664 20.096ZM65.0169 20V18.208L64.9369 17.872V14.816C64.9369 14.1653 64.7449 13.664 64.3609 13.312C63.9875 12.9493 63.4222 12.768 62.6649 12.768C62.1635 12.768 61.6729 12.8533 61.1929 13.024C60.7129 13.184 60.3075 13.4027 59.9769 13.68L59.3369 12.528C59.7742 12.176 60.2969 11.9093 60.9049 11.728C61.5235 11.536 62.1689 11.44 62.8409 11.44C64.0035 11.44 64.8995 11.7227 65.5289 12.288C66.1582 12.8533 66.4729 13.7173 66.4729 14.88V20H65.0169ZM62.2329 20.096C61.6035 20.096 61.0489 19.9893 60.5689 19.776C60.0995 19.5627 59.7369 19.2693 59.4809 18.896C59.2249 18.512 59.0969 18.08 59.0969 17.6C59.0969 17.1413 59.2035 16.7253 59.4169 16.352C59.6409 15.9787 59.9982 15.68 60.4889 15.456C60.9902 15.232 61.6622 15.12 62.5049 15.12H65.1929V16.224H62.5689C61.8009 16.224 61.2835 16.352 61.0169 16.608C60.7502 16.864 60.6169 17.1733 60.6169 17.536C60.6169 17.952 60.7822 18.288 61.1129 18.544C61.4435 18.7893 61.9022 18.912 62.4889 18.912C63.0649 18.912 63.5662 18.784 63.9929 18.528C64.4302 18.272 64.7449 17.8987 64.9369 17.408L65.2409 18.464C65.0382 18.9653 64.6809 19.3653 64.1689 19.664C63.6569 19.952 63.0115 20.096 62.2329 20.096ZM79.9234 11.44C80.606 11.44 81.2087 11.5733 81.7314 11.84C82.254 12.1067 82.6594 12.512 82.9474 13.056C83.246 13.6 83.3954 14.288 83.3954 15.12V20H81.8594V15.296C81.8594 14.4747 81.6674 13.856 81.2834 13.44C80.8994 13.024 80.3607 12.816 79.6674 12.816C79.1554 12.816 78.7074 12.9227 78.3234 13.136C77.9394 13.3493 77.6407 13.664 77.4274 14.08C77.2247 14.496 77.1234 15.0133 77.1234 15.632V20H75.5874V15.296C75.5874 14.4747 75.3954 13.856 75.0114 13.44C74.638 13.024 74.0994 12.816 73.3954 12.816C72.894 12.816 72.4514 12.9227 72.0674 13.136C71.6834 13.3493 71.3847 13.664 71.1714 14.08C70.958 14.496 70.8514 15.0133 70.8514 15.632V20H69.3154V11.52H70.7874V13.776L70.5474 13.2C70.814 12.6453 71.2247 12.2133 71.7794 11.904C72.334 11.5947 72.9794 11.44 73.7154 11.44C74.526 11.44 75.2247 11.6427 75.8114 12.048C76.398 12.4427 76.782 13.0453 76.9634 13.856L76.3394 13.6C76.5954 12.9493 77.0434 12.4267 77.6834 12.032C78.3234 11.6373 79.07 11.44 79.9234 11.44ZM88.6536 20.096C87.9496 20.096 87.2776 20 86.6376 19.808C86.0083 19.616 85.5123 19.3813 85.1496 19.104L85.7896 17.888C86.1523 18.1333 86.6003 18.3413 87.1336 18.512C87.667 18.6827 88.211 18.768 88.7656 18.768C89.4803 18.768 89.9923 18.6667 90.3016 18.464C90.6216 18.2613 90.7816 17.9787 90.7816 17.616C90.7816 17.3493 90.6856 17.1413 90.4936 16.992C90.3016 16.8427 90.0456 16.7307 89.7256 16.656C89.4163 16.5813 89.0696 16.5173 88.6856 16.464C88.3016 16.4 87.9176 16.3253 87.5336 16.24C87.1496 16.144 86.7976 16.016 86.4776 15.856C86.1576 15.6853 85.9016 15.456 85.7096 15.168C85.5176 14.8693 85.4216 14.4747 85.4216 13.984C85.4216 13.472 85.5656 13.024 85.8536 12.64C86.1416 12.256 86.547 11.9627 87.0696 11.76C87.603 11.5467 88.2323 11.44 88.9576 11.44C89.5123 11.44 90.0723 11.5093 90.6376 11.648C91.2136 11.776 91.683 11.9627 92.0456 12.208L91.3896 13.424C91.0056 13.168 90.6056 12.992 90.1896 12.896C89.7736 12.8 89.3576 12.752 88.9416 12.752C88.2696 12.752 87.7683 12.864 87.4376 13.088C87.107 13.3013 86.9416 13.5787 86.9416 13.92C86.9416 14.208 87.0376 14.432 87.2296 14.592C87.4323 14.7413 87.6883 14.8587 87.9976 14.944C88.3176 15.0293 88.6696 15.104 89.0536 15.168C89.4376 15.2213 89.8216 15.296 90.2056 15.392C90.5896 15.4773 90.9363 15.6 91.2456 15.76C91.5656 15.92 91.8216 16.144 92.0136 16.432C92.2163 16.72 92.3176 17.104 92.3176 17.584C92.3176 18.096 92.1683 18.5387 91.8696 18.912C91.571 19.2853 91.1496 19.5787 90.6056 19.792C90.0616 19.9947 89.411 20.096 88.6536 20.096Z" fill="black" fill-opacity="0.7"/>
<path d="M14.754 12C15.72 12 16.504 12.784 16.504 13.75V18.499C16.504 19.6927 16.0298 20.8376 15.1857 21.6817C14.3416 22.5258 13.1967 23 12.003 23C10.8093 23 9.66441 22.5258 8.82031 21.6817C7.97621 20.8376 7.502 19.6927 7.502 18.499V13.75C7.502 12.784 8.285 12 9.252 12H14.754ZM14.754 13.5H9.252C9.1857 13.5 9.12211 13.5263 9.07522 13.5732C9.02834 13.6201 9.002 13.6837 9.002 13.75V18.499C9.002 19.2949 9.31818 20.0582 9.88097 20.621C10.4438 21.1838 11.2071 21.5 12.003 21.5C12.7989 21.5 13.5622 21.1838 14.125 20.621C14.6878 20.0582 15.004 19.2949 15.004 18.499V13.75C15.004 13.6837 14.9777 13.6201 14.9308 13.5732C14.8839 13.5263 14.8203 13.5 14.754 13.5ZM3.75 12H7.131C6.7782 12.4261 6.56274 12.949 6.513 13.5H3.75C3.6837 13.5 3.62011 13.5263 3.57322 13.5732C3.52634 13.6201 3.5 13.6837 3.5 13.75V16.999C3.49994 17.3769 3.5855 17.7499 3.75027 18.0899C3.91504 18.43 4.15473 18.7283 4.45133 18.9625C4.74793 19.1966 5.09374 19.3605 5.46277 19.4418C5.83179 19.5231 6.21445 19.5198 6.582 19.432C6.667 19.936 6.822 20.417 7.035 20.864C6.44228 21.0226 5.82103 21.0427 5.21929 20.9228C4.61756 20.8029 4.05145 20.5463 3.56475 20.1727C3.07805 19.7991 2.68379 19.3185 2.41246 18.7682C2.14114 18.2179 2.00001 17.6126 2 16.999V13.75C2 12.784 2.784 12 3.75 12ZM16.875 12H20.25C21.216 12 22 12.784 22 13.75V17C22.0001 17.6132 21.8593 18.2182 21.5884 18.7682C21.3175 19.3183 20.9237 19.7987 20.4376 20.1724C19.9514 20.546 19.3858 20.8029 18.7846 20.9232C18.1833 21.0435 17.5625 21.0239 16.97 20.866C17.184 20.418 17.339 19.937 17.425 19.433C17.7921 19.5198 18.174 19.5223 18.5423 19.4405C18.9105 19.3587 19.2554 19.1946 19.5512 18.9606C19.847 18.7265 20.086 18.4286 20.2503 18.089C20.4147 17.7495 20.5 17.3772 20.5 17V13.75C20.5 13.6837 20.4737 13.6201 20.4268 13.5732C20.3799 13.5263 20.3163 13.5 20.25 13.5H17.493C17.4433 12.949 17.2278 12.4261 16.875 12ZM12 5C12.7956 5 13.5587 5.31607 14.1213 5.87868C14.6839 6.44129 15 7.20435 15 8C15 8.79565 14.6839 9.55871 14.1213 10.1213C13.5587 10.6839 12.7956 11 12 11C11.2044 11 10.4413 10.6839 9.87868 10.1213C9.31607 9.55871 9 8.79565 9 8C9 7.20435 9.31607 6.44129 9.87868 5.87868C10.4413 5.31607 11.2044 5 12 5ZM18.5 6C19.163 6 19.7989 6.26339 20.2678 6.73223C20.7366 7.20107 21 7.83696 21 8.5C21 9.16304 20.7366 9.79893 20.2678 10.2678C19.7989 10.7366 19.163 11 18.5 11C17.837 11 17.2011 10.7366 16.7322 10.2678C16.2634 9.79893 16 9.16304 16 8.5C16 7.83696 16.2634 7.20107 16.7322 6.73223C17.2011 6.26339 17.837 6 18.5 6ZM5.5 6C6.16304 6 6.79893 6.26339 7.26777 6.73223C7.73661 7.20107 8 7.83696 8 8.5C8 9.16304 7.73661 9.79893 7.26777 10.2678C6.79893 10.7366 6.16304 11 5.5 11C4.83696 11 4.20107 10.7366 3.73223 10.2678C3.26339 9.79893 3 9.16304 3 8.5C3 7.83696 3.26339 7.20107 3.73223 6.73223C4.20107 6.26339 4.83696 6 5.5 6ZM12 6.5C11.6022 6.5 11.2206 6.65804 10.9393 6.93934C10.658 7.22064 10.5 7.60218 10.5 8C10.5 8.39782 10.658 8.77936 10.9393 9.06066C11.2206 9.34196 11.6022 9.5 12 9.5C12.3978 9.5 12.7794 9.34196 13.0607 9.06066C13.342 8.77936 13.5 8.39782 13.5 8C13.5 7.60218 13.342 7.22064 13.0607 6.93934C12.7794 6.65804 12.3978 6.5 12 6.5ZM18.5 7.5C18.2348 7.5 17.9804 7.60536 17.7929 7.79289C17.6054 7.98043 17.5 8.23478 17.5 8.5C17.5 8.76522 17.6054 9.01957 17.7929 9.20711C17.9804 9.39464 18.2348 9.5 18.5 9.5C18.7652 9.5 19.0196 9.39464 19.2071 9.20711C19.3946 9.01957 19.5 8.76522 19.5 8.5C19.5 8.23478 19.3946 7.98043 19.2071 7.79289C19.0196 7.60536 18.7652 7.5 18.5 7.5ZM5.5 7.5C5.23478 7.5 4.98043 7.60536 4.79289 7.79289C4.60536 7.98043 4.5 8.23478 4.5 8.5C4.5 8.76522 4.60536 9.01957 4.79289 9.20711C4.98043 9.39464 5.23478 9.5 5.5 9.5C5.76522 9.5 6.01957 9.39464 6.20711 9.20711C6.39464 9.01957 6.5 8.76522 6.5 8.5C6.5 8.23478 6.39464 7.98043 6.20711 7.79289C6.01957 7.60536 5.76522 7.5 5.5 7.5Z" fill="black" fill-opacity="0.7"/>
</svg>
