<svg width="20" height="20" viewBox="0 0 20 20" fill="none" xmlns="http://www.w3.org/2000/svg">
<path d="M6.04166 5C5.8759 5 5.71692 5.06585 5.59971 5.18306C5.4825 5.30027 5.41666 5.45924 5.41666 5.625V11.875C5.41666 12.0408 5.4825 12.1997 5.59971 12.3169C5.71692 12.4342 5.8759 12.5 6.04166 12.5C6.20742 12.5 6.36639 12.4342 6.4836 12.3169C6.60081 12.1997 6.66666 12.0408 6.66666 11.875V5.625C6.66666 5.45924 6.60081 5.30027 6.4836 5.18306C6.36639 5.06585 6.20742 5 6.04166 5ZM9.99999 5C9.83423 5 9.67526 5.06585 9.55805 5.18306C9.44084 5.30027 9.37499 5.45924 9.37499 5.625V9.375C9.37499 9.54076 9.44084 9.69973 9.55805 9.81694C9.67526 9.93415 9.83423 10 9.99999 10C10.1658 10 10.3247 9.93415 10.4419 9.81694C10.5591 9.69973 10.625 9.54076 10.625 9.375V5.625C10.625 5.45924 10.5591 5.30027 10.4419 5.18306C10.3247 5.06585 10.1658 5 9.99999 5ZM13.3333 5.625C13.3333 5.45924 13.3992 5.30027 13.5164 5.18306C13.6336 5.06585 13.7926 5 13.9583 5C14.1241 5 14.2831 5.06585 14.4003 5.18306C14.5175 5.30027 14.5833 5.45924 14.5833 5.625V13.5417C14.5833 13.7074 14.5175 13.8664 14.4003 13.9836C14.2831 14.1008 14.1241 14.1667 13.9583 14.1667C13.7926 14.1667 13.6336 14.1008 13.5164 13.9836C13.3992 13.8664 13.3333 13.7074 13.3333 13.5417V5.625Z" fill="#F25C08"/>
<path d="M3.12499 1.66602H16.875C17.68 1.66602 18.3333 2.31935 18.3333 3.12435V16.8743C18.3333 17.2611 18.1797 17.6321 17.9062 17.9055C17.6327 18.179 17.2618 18.3327 16.875 18.3327H3.12499C2.73822 18.3327 2.36728 18.179 2.09379 17.9055C1.8203 17.6321 1.66666 17.2611 1.66666 16.8743V3.12435C1.66666 2.31935 2.31999 1.66602 3.12499 1.66602ZM2.91666 3.12435V16.8743C2.91666 16.9893 3.00999 17.0827 3.12499 17.0827H16.875C16.9302 17.0827 16.9832 17.0607 17.0223 17.0217C17.0614 16.9826 17.0833 16.9296 17.0833 16.8743V3.12435C17.0833 3.0691 17.0614 3.01611 17.0223 2.97704C16.9832 2.93797 16.9302 2.91602 16.875 2.91602H3.12499C3.06974 2.91602 3.01675 2.93797 2.97768 2.97704C2.93861 3.01611 2.91666 3.0691 2.91666 3.12435Z" fill="#F25C08"/>
</svg>
