<svg width="20" height="20" viewBox="0 0 20 20" fill="none" xmlns="http://www.w3.org/2000/svg">
<g clip-path="url(#clip0_308_3285)">
<path d="M3.33333 4.16703C3.33334 4.05621 3.35546 3.94651 3.39839 3.84435C3.44132 3.74218 3.50419 3.6496 3.58333 3.57203C4.49153 2.68173 5.70487 2.17097 6.97638 2.14373C8.24788 2.11648 9.48199 2.57479 10.4275 3.42536L10.72 3.6987C11.3279 4.23128 12.1085 4.52489 12.9167 4.52489C13.7248 4.52489 14.5055 4.23128 15.1133 3.6987L15.3208 3.50953C15.8292 3.10703 16.5933 3.4287 16.6625 4.07286L16.6667 4.16703V11.667C16.6666 11.7778 16.6445 11.8876 16.6016 11.9897C16.5587 12.0919 16.4958 12.1845 16.4167 12.262C15.5085 13.1523 14.2951 13.6631 13.0236 13.6903C11.7521 13.7176 10.518 13.2593 9.5725 12.4087L9.27999 12.1354C8.69127 11.6195 7.9398 11.3273 7.15726 11.31C6.37472 11.2926 5.61102 11.5512 4.99999 12.0404V17.5004C4.99976 17.7128 4.91843 17.9171 4.77262 18.0715C4.62681 18.226 4.42753 18.3189 4.2155 18.3313C4.00346 18.3438 3.79468 18.2748 3.6318 18.1385C3.46892 18.0022 3.36425 17.8088 3.33916 17.5979L3.33333 17.5004V4.16703Z" fill="#DD0000"/>
</g>
<defs>
<clipPath id="clip0_308_3285">
<rect width="20" height="20" fill="white"/>
</clipPath>
</defs>
</svg>
