<svg width="26" height="29" viewBox="0 0 26 29" fill="none" xmlns="http://www.w3.org/2000/svg">
<path d="M22.375 15.5494V13.125H20.5V15.9375C20.5001 16.1861 20.5989 16.4245 20.7747 16.6003L23.3125 19.1381V20.625H2.6875V19.1381L5.22531 16.6003C5.40114 16.4245 5.49995 16.1861 5.5 15.9375V12.1875C5.49755 10.8702 5.84276 9.57558 6.50075 8.43438C7.15874 7.29318 8.10622 6.34581 9.2475 5.68796C10.3888 5.03011 11.6834 4.68506 13.0007 4.68767C14.318 4.69028 15.6113 5.04045 16.75 5.70281V3.60562C15.8576 3.21049 14.9084 2.95864 13.9375 2.85938V0.9375H12.0625V2.85938C9.75116 3.09462 7.60915 4.17855 6.05066 5.90155C4.49217 7.62455 3.62791 9.86422 3.625 12.1875V15.5494L1.08719 18.0872C0.91136 18.263 0.812553 18.5014 0.8125 18.75V21.5625C0.8125 21.8111 0.911272 22.0496 1.08709 22.2254C1.2629 22.4012 1.50136 22.5 1.75 22.5H8.3125V23.4375C8.3125 24.6807 8.80636 25.873 9.68544 26.7521C10.5645 27.6311 11.7568 28.125 13 28.125C14.2432 28.125 15.4355 27.6311 16.3146 26.7521C17.1936 25.873 17.6875 24.6807 17.6875 23.4375V22.5H24.25C24.4986 22.5 24.7371 22.4012 24.9129 22.2254C25.0887 22.0496 25.1875 21.8111 25.1875 21.5625V18.75C25.1874 18.5014 25.0886 18.263 24.9128 18.0872L22.375 15.5494ZM15.8125 23.4375C15.8125 24.1834 15.5162 24.8988 14.9887 25.4262C14.4613 25.9537 13.7459 26.25 13 26.25C12.2541 26.25 11.5387 25.9537 11.0113 25.4262C10.4838 24.8988 10.1875 24.1834 10.1875 23.4375V22.5H15.8125V23.4375Z" fill="black" fill-opacity="0.7"/>
</svg>
