<svg width="22" height="22" viewBox="0 0 22 22" fill="none" xmlns="http://www.w3.org/2000/svg">
<path d="M2.74266 10.6118C2.74266 9.11584 3.11666 7.72984 3.85733 6.46118C4.59799 5.19251 5.60266 4.18784 6.87133 3.44718C8.13999 2.70651 9.51866 2.33984 11.0073 2.33984C12.122 2.33984 13.1927 2.55984 14.212 2.99251C15.2313 3.42518 16.104 4.01918 16.8447 4.75251C17.5853 5.48584 18.172 6.36584 18.6047 7.39251C19.0373 8.41918 19.2573 9.48251 19.2573 10.6118C19.2573 11.7265 19.0373 12.7972 18.6047 13.8165C18.172 14.8358 17.578 15.7158 16.8447 16.4492C16.1113 17.1825 15.2313 17.7692 14.212 18.2018C13.1927 18.6345 12.1293 18.8545 11.0073 18.8545C9.88533 18.8545 8.80733 18.6345 7.78799 18.2018C6.76866 17.7692 5.88866 17.1752 5.14799 16.4418C4.40733 15.7085 3.82799 14.8285 3.38799 13.8165C2.94799 12.8045 2.74266 11.7338 2.74266 10.6118ZM4.56133 10.6118C4.56133 12.3498 5.19199 13.8605 6.46066 15.1438C7.72933 16.4125 9.23999 17.0432 11.0073 17.0432C12.166 17.0432 13.244 16.7572 14.2267 16.1778C15.2093 15.5985 16.0013 14.8212 16.5807 13.8312C17.16 12.8412 17.4533 11.7705 17.4533 10.6118C17.4533 9.45318 17.16 8.37518 16.5807 7.38518C16.0013 6.39518 15.2167 5.61051 14.2267 5.03118C13.2367 4.45184 12.166 4.16584 11.0073 4.16584C9.84866 4.16584 8.77066 4.45184 7.78799 5.03118C6.80533 5.61051 6.01333 6.39518 5.42666 7.38518C4.83999 8.37518 4.56133 9.45318 4.56133 10.6118ZM10.3693 10.6118V5.72784C10.3693 5.55918 10.428 5.41251 10.5453 5.29518C10.6627 5.17784 10.8093 5.11918 10.978 5.11918C11.1467 5.11918 11.2933 5.17784 11.4107 5.29518C11.528 5.41251 11.5867 5.55918 11.5867 5.72784V9.99584H14.3587C14.5273 9.99584 14.674 10.0545 14.7913 10.1718C14.9087 10.2892 14.9673 10.4358 14.9673 10.6045C14.9673 10.7658 14.9087 10.9125 14.7913 11.0372C14.674 11.1618 14.5273 11.2205 14.3587 11.2205H11.1027C11.0807 11.2278 11.0367 11.2278 10.9707 11.2278C10.89 11.2293 10.81 11.2143 10.7354 11.1837C10.6608 11.153 10.5932 11.1075 10.5369 11.0498C10.4806 10.9921 10.4367 10.9234 10.4078 10.8481C10.379 10.7728 10.3659 10.6924 10.3693 10.6118Z" fill="black" fill-opacity="0.6"/>
</svg>
